# xmcd CD database file
#
# Track frame offsets:
#	150
#	23714
#	44858
#	81704
#	97363
#	114345
#	131799
#	150765
#	164837
#	183063
#	203868
#	222570
#
# Disc length: 3257 seconds
#
# Revision: 1
# Processed by: cddbd v1.5.2PL0 Copyright (c) Steve Scherf et al.
# Submitted via: CDex 1.51
#
DISCID=b20cb70c
DTITLE=Antônio Carlos e Jocafi - Samba, Prazer e Mistério
DYEAR=1900
DGENRE=Samba
TTITLE0=Você Abusou
TTITLE1=Desacato/Tamanco Malandrinho
TTITLE2=Pot-Pourri/A Flor e o Espinho/Não deixe o Samba Morrer/O que é, o que é/etc...
TTITLE3=Samba,Prazer e Mistério
TTITLE4=Eu quero botar meu bloco na rua
TTITLE5=Teimosia
TTITLE6=Dona da casa
TTITLE7=Mas Que Doidice
TTITLE8=Negócio de Cumadre
TTITLE9=Pot/Pourri/Minhas Razões...
TTITLE10=Vá Brincando
TTITLE11=Agua viva
EXTD=Samba, Prazer e Mistério
EXTT0=
EXTT1=
EXTT2=
EXTT3=
EXTT4=
EXTT5=
EXTT6=
EXTT7=
EXTT8=
EXTT9=
EXTT10=
EXTT11=
PLAYORDER=
